HIERARCHY
ROOT hip
{
	OFFSET 0 0 0 
	CHANNELS 6 Xposition Yposition Zposition Zrotation Xrotation Yrotation
	JOINT abdomen
	{
		OFFSET 0 3.398670 -0.004769 
		CHANNELS 3 Zrotation Xrotation Yrotation
		JOINT chest
		{
			OFFSET 0 6.050560 -0.002982 
			CHANNELS 3 Zrotation Xrotation Yrotation
			JOINT neck
			{
				OFFSET 0 10.375700 0.008024 
				CHANNELS 3 Zrotation Xrotation Yrotation
				JOINT head
				{
					OFFSET 0 4.618650 0.003677 
					CHANNELS 3 Zrotation Xrotation Yrotation
					End Site
					{
						OFFSET 0 9.600460 -0.000013 
					}
				}
			}
			JOINT lCollar
			{
				OFFSET 4.800000 9.925670 0.008032 
				CHANNELS 3 Zrotation Xrotation Yrotation
				JOINT lShldr
				{
					OFFSET 5.365090 0 0 
					CHANNELS 3 Zrotation Xrotation Yrotation
					JOINT lForeArm
					{
						OFFSET 12.605600 0.147456 0.154816 
						CHANNELS 3 Zrotation Xrotation Yrotation
						JOINT lHand
						{
							OFFSET 10.667000 -0.080733 2.165230 
							CHANNELS 3 Zrotation Xrotation Yrotation
							End Site
							{
								OFFSET 4.272820 -0.032341 0.867312 
							}
						}
					}
				}
			}
			JOINT rCollar
			{
				OFFSET -4.800000 9.925670 0.008022 
				CHANNELS 3 Zrotation Xrotation Yrotation
				JOINT rShldr
				{
					OFFSET -5.365090 0 0 
					CHANNELS 3 Zrotation Xrotation Yrotation
					JOINT rForeArm
					{
						OFFSET -12.605600 0.147455 0.154817 
						CHANNELS 3 Zrotation Xrotation Yrotation
						JOINT rHand
						{
							OFFSET -10.667000 -0.080733 2.165260 
							CHANNELS 3 Zrotation Xrotation Yrotation
							End Site
							{
								OFFSET -4.272810 -0.032341 0.867326 
							}
						}
					}
				}
			}
		}
	}
	JOINT lThigh
	{
		OFFSET 6.065530 0 0 
		CHANNELS 3 Zrotation Xrotation Yrotation
		JOINT lShin
		{
			OFFSET -0.664052 -12.256800 1.011970 
			CHANNELS 3 Zrotation Xrotation Yrotation
			JOINT lFoot
			{
				OFFSET -0.663843 -12.252900 -1.058370 
				CHANNELS 3 Zrotation Xrotation Yrotation
				JOINT lToe
				{
					OFFSET 0 -2.832770 3.645650 
					CHANNELS 3 Zrotation Xrotation Yrotation
					End Site
					{
						OFFSET 0 0 1.108470 
					}
				}
			}
		}
	}
	JOINT rThigh
	{
		OFFSET -6.065530 0 0 
		CHANNELS 3 Zrotation Xrotation Yrotation
		JOINT rShin
		{
			OFFSET 0.664056 -12.256800 1.011940 
			CHANNELS 3 Zrotation Xrotation Yrotation
			JOINT rFoot
			{
				OFFSET 0.663839 -12.252900 -1.058340 
				CHANNELS 3 Zrotation Xrotation Yrotation
				JOINT rToe
				{
					OFFSET 0 -2.832770 3.645650 
					CHANNELS 3 Zrotation Xrotation Yrotation
					End Site
					{
						OFFSET 0 0 1.108470 
					}
				}
			}
		}
	}
}
MOTION
Frames: 6
Frame Time: 0.033333
-0.000010 35.405800 -7.364410 0 0 0.000079 -0.000005 -7.846540 -0.000001 -0.000001 13.669600 0.000002 -0.000021 0.000006 0.000006 0.000026 -5.823070 -0.000001 0.000006 -0 0 -89.699799 -4.729910 -6.999540 -5.052290 4.828100 -87.032898 72.619003 82.443298 -30.163601 0.000006 -0 0 89.699799 -4.729910 6.999540 5.052280 4.828110 87.032799 -72.619499 82.443199 30.163900 5.515690 -55.747601 4.563450 1.528130 47.910900 -3.438810 -3.101180 7.867200 0.000001 0.000003 -0 0 -3.980960 -38.808102 -2.497460 -8.054660 73.762299 10.721300 3.101240 -35.177700 0.000023 0.000003 -0.000001 -0.000003 
-0.000010 35.405800 -7.364410 0 0 0.000079 -0.000005 -7.846540 -0.000001 -0.000001 13.669600 0.000002 -0.000021 0.000006 0.000006 0.000026 -5.823070 -0.000001 0.000006 -0 0 -89.699799 -4.729910 -6.999540 -5.052290 4.828100 -87.032898 72.619003 82.443298 -30.163601 0.000006 -0 0 89.699799 -4.729910 6.999540 5.052280 4.828110 87.032799 -72.619499 82.443199 30.163900 5.105280 -52.558498 4.057340 1.157090 43.233299 -2.919660 -3.101180 9.356040 0.000001 0.000003 -0.000001 0 -4.105750 -40.921902 -2.692100 -11.320100 77.453598 14.090700 3.101250 -36.842201 0.000027 0.000003 0.000002 -0.000004 
-0.000010 35.405800 -7.364410 0 0 0.000079 -0.000005 -7.846540 -0.000001 -0.000001 13.669600 0.000002 -0.000021 0.000006 0.000006 0.000026 -5.823070 -0.000001 0.000006 -0 0 -89.699799 -4.729910 -6.999540 -5.052290 4.828100 -87.032898 72.619003 82.443298 -30.163601 0.000006 -0 0 89.699799 -4.729910 6.999540 5.052280 4.828110 87.032799 -72.619499 82.443199 30.163900 4.765380 -49.367500 3.619910 0.865542 38.553600 -2.474680 -3.101180 10.844900 0.000002 0.000003 0.000001 0 -4.244570 -43.035198 -2.899620 -17.293400 81.068901 20.167299 3.101250 -38.506802 0.000031 0.000003 0 -0.000003 
-0.000010 35.405800 -7.364410 0 0 0.000079 -0.000005 -7.846540 -0.000001 -0.000001 13.669600 0.000002 -0.000021 0.000006 0.000006 0.000026 -5.823070 -0.000001 0.000006 -0 0 -89.699799 -4.729910 -6.999540 -5.052290 4.828100 -87.032898 72.619003 82.443298 -30.163601 0.000006 -0 0 89.699799 -4.729910 6.999540 5.052280 4.828110 87.032799 -72.619499 82.443199 30.163900 4.466730 -46.000999 3.216210 0.628550 33.732101 -2.073200 -3.101190 12.299800 0.000002 0.000003 0 0 -4.412270 -45.315300 -3.140220 -29.108000 84.174400 32.075401 3.101260 -39.665798 0.000034 0.000003 0 -0.000003 
-0.000010 35.405800 -7.364410 0 0 0.000079 -0.000005 -7.846540 -0.000001 -0.000001 13.669600 0.000002 -0.000021 0.000006 0.000006 0.000026 -5.823070 -0.000001 0.000006 -0 0 -89.699799 -4.729910 -6.999540 -5.052290 4.828100 -87.032898 72.619003 82.443298 -30.163601 0.000006 -0 0 89.699799 -4.729910 6.999540 5.052280 4.828110 87.032799 -72.619499 82.443199 30.163900 4.201120 -42.397999 2.835400 0.434665 28.695400 -1.699420 -3.101190 13.733300 0.000003 0.000003 -0.000001 -0 -4.620740 -47.813599 -3.427240 -56.307899 86.396698 59.359299 3.101260 -40.257999 0.000032 0.000004 0 -0.000003 
-0.000010 35.405800 -7.364410 0 0 0.000079 -0.000005 -7.846540 -0.000001 -0.000001 13.669600 0.000002 -0.000021 0.000006 0.000006 0.000026 -5.823070 -0.000001 0.000006 -0 0 -89.699799 -4.729910 -6.999540 -5.052290 4.828100 -87.032898 72.619003 82.443298 -30.163601 0.000006 -0 0 89.699799 -4.729910 6.999540 5.052280 4.828110 87.032799 -72.619499 82.443199 30.163900 3.973170 -38.668598 2.484840 0.281781 23.540400 -1.352470 -3.101190 15.158800 0.000004 0.000003 0.000002 -0 -4.871430 -50.426899 -3.758720 -106.285004 86.712097 109.416000 3.101260 -40.563702 0.000035 0.000003 0 -0.000003 
